<svg width="62" height="61" viewBox="0 0 62 61" fill="none" xmlns="http://www.w3.org/2000/svg">
<g clip-path="url(#clip0_3657_663)">
<g clip-path="url(#clip1_3657_663)">
<g clip-path="url(#clip2_3657_663)">
<path d="M22.9157 0.410156C16.3003 0.410156 10.914 5.79839 10.914 12.4139C10.914 12.7969 10.9316 13.1752 10.957 13.5584C10.9683 14.9685 13.1181 14.8317 12.9511 13.4314C12.9283 13.0781 12.9139 12.74 12.9139 12.4139C12.9139 6.87928 17.3811 2.41201 22.9157 2.41201C28.4504 2.41201 32.9097 6.87924 32.9097 12.4139C32.9097 13.6501 32.7408 15.0007 32.4234 16.3982C32.2068 16.4209 31.9878 16.4605 31.7769 16.5271C31.4002 15.2971 30.2539 14.4061 28.9098 14.4061C27.2305 14.4061 25.9137 13.0893 25.9137 11.41C25.9217 10.8489 25.4631 10.3919 24.902 10.3982C24.3496 10.4057 23.9075 10.8575 23.9138 11.41C23.9138 13.0892 22.595 14.4061 20.9158 14.4061H16.9139C15.5698 14.4061 14.4313 15.3206 14.0545 16.5506C13.4689 16.3662 12.8445 16.3472 12.2792 16.4957C11.0597 16.8162 9.96695 17.8963 9.91786 19.3922C9.91786 22.2812 12.0193 24.1648 14.4159 24.3804C14.9217 25.834 15.7929 27.0954 16.9139 28.103V30.4097C16.9119 30.4097 16.9099 30.4097 16.9079 30.4097C16.6444 30.4118 16.3925 30.5177 16.2067 30.7044L14.2048 32.7063C13.9443 32.9671 13.8483 33.3497 13.9548 33.7024L20.3746 54.5576L13.0036 45.1768L13.8845 41.6516C13.9693 41.3107 13.8693 40.9505 13.6208 40.7023L11.0154 38.0969L11.9782 33.9895C12.1254 33.3623 11.6498 32.7616 11.0056 32.761C10.9246 32.761 10.844 32.7723 10.7654 32.7912C5.09444 34.193 0.914102 39.3103 0.914062 45.4103V59.4101C0.914122 59.9623 1.3618 60.41 1.91405 60.4101H38.9136C40.2659 60.429 40.2659 58.3909 38.9136 58.4101H24.9724L34.7007 46.0273C34.8913 45.7847 34.959 45.4675 34.8843 45.1681L34.0211 41.717L36.6207 39.1173C36.8568 38.8811 36.9593 38.5426 36.8941 38.215L36.3257 35.3459C38.0183 36.068 39.5356 37.2433 40.6792 38.7482C41.4877 39.8018 43.0713 38.5985 42.2729 37.5373C40.5232 35.2346 38.1528 33.6118 35.2437 32.8928C34.5316 32.7167 33.8784 33.3416 34.023 34.0608L34.8277 38.0822L32.2067 40.7032C31.9582 40.9515 31.8581 41.3117 31.943 41.6525L32.8238 45.1777L25.4509 54.5624L31.8707 33.7033C31.9768 33.3503 31.8797 32.9675 31.6188 32.7073L29.6188 30.7054C29.4308 30.5172 29.1757 30.4121 28.9098 30.4124V28.1078C30.0321 27.0997 30.9041 25.8448 31.4098 24.3891C33.84 24.2062 35.9156 22.2816 35.9156 19.393C35.8778 18.241 35.2193 17.3448 34.3648 16.8424C34.7082 15.3319 34.9117 13.8332 34.9117 12.4147C34.9117 5.7992 29.5313 0.410156 22.9157 0.410156ZM24.9138 14.412C25.8261 15.6362 27.2714 16.406 28.9098 16.4061C29.4812 16.4061 29.9137 16.8407 29.9137 17.412V21.4118C29.9137 25.3071 26.811 28.4098 22.9157 28.4098C19.0205 28.4098 15.91 25.3071 15.91 21.4118V17.412C15.91 16.8407 16.3426 16.4061 16.9139 16.4061H20.9158C22.5546 16.406 24.0015 15.6368 24.9138 14.412ZM13.91 18.7459V21.4118C13.91 21.6987 13.9267 21.9815 13.953 22.2614C12.8362 21.9307 11.9257 20.987 11.9257 19.4256C11.9257 18.3867 13.4739 18.0828 13.91 18.7459ZM33.9078 19.4334C33.9078 20.9184 32.9887 21.934 31.8707 22.2635C31.8971 21.9831 31.9137 21.6994 31.9137 21.412V18.7499C32.3734 18.0717 33.9078 18.3927 33.9078 19.4334ZM26.9176 29.4665V31.7692L22.9157 35.1051L18.9158 31.7712V29.4685C20.1208 30.0691 21.478 30.4098 22.9157 30.4098C24.3551 30.4098 25.7124 30.0682 26.9176 29.4665ZM16.9744 32.7653L21.2771 36.3492L17.658 38.9332L16.0447 33.6872L16.9744 32.7653ZM28.8512 32.7653L29.7809 33.6872L28.1676 38.9313L24.5485 36.3473L28.8512 32.7653ZM9.62098 35.273L8.9413 38.1812C8.86201 38.5179 8.96251 38.8719 9.20693 39.1167L11.8065 41.7164L10.9433 45.1675C10.8686 45.4668 10.9363 45.784 11.1268 46.0268L20.8552 58.4094H9.91786V51.4114C9.92916 50.8445 9.4653 50.3813 8.89834 50.3919C8.34583 50.4033 7.90558 50.859 7.91593 51.4114V58.4094H2.91405V45.4096C2.91405 40.87 5.73211 36.9619 9.62098 35.273ZM54.4466 43.2436L50.9974 51.0052C50.9422 51.1333 50.9154 51.2721 50.9173 51.4116C50.9173 51.4116 50.9022 52.6163 51.5208 53.8548C52.1401 55.0933 53.4364 56.4075 55.9133 56.4075C58.3902 56.4075 59.6847 55.0933 60.3039 53.8548C60.9233 52.6163 60.9093 51.4116 60.9093 51.4116C60.9113 51.2721 60.8829 51.1333 60.8293 51.0052L57.3781 43.2378C57.9376 43.1112 58.9587 42.7531 59.6183 42.1167C60.5106 41.256 59.2339 39.7536 58.2102 40.6987C57.8417 41.0389 56.841 41.4077 55.9114 41.4077C53.3864 41.3699 52.2843 39.6756 48.9134 39.4547V37.4078C48.9213 36.8552 48.4795 36.4021 47.9271 36.3961V36.3923C47.9192 36.3922 47.9154 36.3886 47.9116 36.3886C47.3591 36.3961 46.9191 36.8478 46.9253 37.4002V39.4471C43.5544 39.6682 42.4523 41.3636 39.9273 41.4002C38.9976 41.4002 37.9972 41.0317 37.6285 40.6912C36.6048 39.7461 35.328 41.2483 36.2203 42.1091C36.88 42.7455 37.9011 43.1036 38.4606 43.2302L35.0094 50.9977C34.9542 51.1258 34.9278 51.2646 34.9293 51.4039C34.9293 51.4039 34.9142 52.6087 35.5348 53.8472C36.154 55.0857 37.4484 56.4 39.9254 56.4C42.4023 56.4 43.6986 55.0857 44.3179 53.8472C44.9371 52.6087 44.9214 51.4039 44.9214 51.4039C44.9234 51.2645 44.8949 51.1258 44.8413 50.9977L41.3921 43.2361C43.4369 42.9115 44.6379 41.4053 47.9116 41.404C51.1979 41.4078 52.3983 42.9184 54.4466 43.2436ZM22.9138 37.6401L24.4802 38.7593L23.3806 40.4135H22.4509L21.3474 38.7593L22.9138 37.6401ZM19.7205 39.9213L20.863 41.6362L20.0271 46.6381L18.2791 40.9506L19.7205 39.9213ZM26.111 39.9234L27.5465 40.9488L25.7985 46.6284L24.9665 41.6401L26.111 39.9234ZM22.7595 42.4136H23.0681L24.4821 50.9057L22.9099 56.0111L21.3435 50.9173L22.7595 42.4136ZM47.9232 43.3862C47.4231 43.3862 46.9252 43.7195 46.9252 44.3862V58.4016H42.8745C41.5244 58.4935 41.6163 60.4347 42.9214 60.4016H47.9115V60.4091H52.9173C54.2223 60.4432 54.3143 58.5009 52.9642 58.4091H48.9134V44.3938C48.9134 43.7323 48.4232 43.401 47.9271 43.3957V43.3843L47.9232 43.3862ZM39.9253 44.8628L42.3823 50.3978H37.4702L39.9253 44.8628ZM55.9133 44.8704L58.3684 50.4054H53.4563L55.9133 44.8704ZM37.105 52.3996H42.7475C42.7475 52.3996 42.3949 54.3994 39.9272 54.3994C37.4594 54.3994 37.105 52.3996 37.105 52.3996ZM53.0911 52.4071H58.7336C58.7336 52.4071 58.3791 54.4071 55.9114 54.4071C53.4436 54.4071 53.0911 52.4071 53.0911 52.4071Z" fill="white"/>
</g>
</g>
</g>
<defs>
<clipPath id="clip0_3657_663">
<rect width="61" height="60" fill="white" transform="translate(0.109375 0.410156)"/>
</clipPath>
<clipPath id="clip1_3657_663">
<rect width="61" height="60" fill="white" transform="translate(0.109375 0.410156)"/>
</clipPath>
<clipPath id="clip2_3657_663">
<rect width="61" height="60" fill="white" transform="translate(0.109375 0.410156)"/>
</clipPath>
</defs>
</svg>
