<svg width="62" height="61" viewBox="0 0 62 61" fill="none" xmlns="http://www.w3.org/2000/svg">
<g clip-path="url(#clip0_3657_681)">
<g clip-path="url(#clip1_3657_681)">
<g clip-path="url(#clip2_3657_681)">
<path d="M34.392 31.2486C34.4654 31.1801 34.5414 31.1201 34.6197 31.065L39.1237 39.9675C39.229 40.1744 39.4408 40.303 39.6698 40.303C39.6906 40.303 39.7114 40.3018 39.7335 40.2993C39.9857 40.2736 40.1964 40.0936 40.2613 39.8487L41.6426 34.6945L46.7967 36.0758C47.0416 36.1407 47.3025 36.0489 47.4506 35.8432C47.6 35.6374 47.6062 35.3619 47.4678 35.1488L42.0099 26.7962C42.1838 26.6713 42.3798 26.5721 42.6014 26.5047L43.6386 26.1863C45.2256 25.7002 46.1795 24.0507 45.811 22.4331L45.566 21.3579C45.4154 20.6954 45.5795 20.0831 46.0424 19.586L46.7808 18.7925C47.9111 17.5777 47.9135 15.6735 46.7845 14.4563L46.035 13.6481C45.5734 13.1497 45.4093 12.5374 45.5624 11.8762L45.8048 10.8194C46.1771 9.2017 45.2256 7.55223 43.6398 7.06241L42.5867 6.73667C41.9377 6.53585 41.4895 6.08766 41.2911 5.43865L40.9727 4.40145C40.4866 2.81442 38.8383 1.86049 37.2195 2.23031L36.1443 2.47522C35.4818 2.62584 34.8696 2.46175 34.3724 1.99887L33.5789 1.25923C32.3641 0.128969 30.4599 0.12652 29.2427 1.25556L28.4345 2.00499C27.9373 2.46665 27.3238 2.63074 26.6626 2.47767L25.6058 2.23398C23.9882 1.86294 22.3387 2.8132 21.8489 4.399L21.5231 5.45212C21.3223 6.10113 20.8741 6.54932 20.2251 6.74769L19.1879 7.06608C17.6009 7.55223 16.6469 9.2017 17.0155 10.8194L17.2604 11.8945C17.4111 12.557 17.247 13.1693 16.7841 13.6665L16.0445 14.46C14.9142 15.6747 14.9117 17.5789 16.0408 18.7961L16.7902 19.6043C17.2519 20.1027 17.416 20.715 17.2629 21.3775L17.0204 22.4343C16.6482 24.0519 17.5996 25.7014 19.1842 26.1912L20.2373 26.517C20.4529 26.5831 20.6439 26.6798 20.8141 26.7998L15.3575 35.1501C15.2191 35.3631 15.2252 35.6387 15.3746 35.8444C15.524 36.0501 15.7836 36.142 16.0285 36.0771L21.1827 34.6958L22.564 39.8499C22.6301 40.0948 22.8395 40.2748 23.0918 40.3006C23.1126 40.303 23.1346 40.3042 23.1555 40.3042C23.3844 40.3042 23.5963 40.1756 23.7016 39.9687L28.208 31.0625C28.2912 31.1201 28.3721 31.185 28.4504 31.2572L29.2439 31.9956C29.8526 32.5614 30.6326 32.8455 31.4139 32.8442C32.1927 32.8442 32.9715 32.5626 33.5801 31.9993L34.392 31.2486ZM41.3695 33.3524C41.0425 33.2643 40.707 33.459 40.6201 33.7859L39.4947 37.9849L35.8223 30.7258C35.9349 30.7331 36.05 30.749 36.1664 30.776L37.2231 31.0196C38.8396 31.3919 40.4903 30.4404 40.9801 28.8546L41.2728 27.9056L45.5685 34.479L41.3695 33.3524ZM23.3367 37.9849L22.2113 33.7859C22.1244 33.459 21.7876 33.2667 21.4619 33.3524L17.2629 34.4778L21.5623 27.8983L21.855 28.8522C22.3411 30.4392 23.9906 31.3931 25.6082 31.0245L26.6834 30.7796C26.7924 30.7551 26.9014 30.7392 27.0067 30.7319L23.3367 37.9849ZM32.7511 31.1005C31.9894 31.8058 30.842 31.8058 30.0815 31.098L29.288 30.3596C28.6807 29.7939 27.941 29.5 27.1536 29.5C26.9099 29.5 26.6614 29.5281 26.4103 29.5857L25.3352 29.8306C24.3225 30.0608 23.3293 29.4865 23.0244 28.4934L22.706 27.4562C22.3877 26.4165 21.6395 25.6671 20.601 25.3463L19.5479 25.0206C18.556 24.7144 17.9829 23.7201 18.2156 22.7074L18.4581 21.6506C18.7017 20.5913 18.4287 19.5688 17.689 18.7704L16.9396 17.9622C16.233 17.2005 16.2343 16.0531 16.9421 15.2927L17.6817 14.4992C18.4226 13.7032 18.6969 12.6807 18.4556 11.6215L18.2107 10.5463C17.9805 9.53356 18.5548 8.54044 19.5479 8.23553L20.5851 7.91715C21.6248 7.59876 22.3742 6.85056 22.695 5.81213L23.0208 4.75902C23.3269 3.76713 24.3212 3.19403 25.3339 3.4267L26.3907 3.67039C27.4512 3.91407 28.4737 3.641 29.2709 2.90137L30.0791 2.15194C30.8408 1.44537 31.9882 1.44659 32.7486 2.15439L33.5421 2.89402C34.3381 3.63487 35.3594 3.90918 36.4198 3.66794L37.495 3.42303C38.5077 3.19159 39.5008 3.76713 39.8057 4.76024L40.1241 5.79744C40.4425 6.83709 41.1907 7.58652 42.2291 7.90735L43.2822 8.23308C44.2741 8.53922 44.8472 9.53356 44.6146 10.5463L44.3721 11.6031C44.1284 12.6623 44.4015 13.6861 45.1411 14.4833L45.8905 15.2915C46.5971 16.0531 46.5959 17.2005 45.8881 17.9598L45.1497 18.7533C44.4088 19.5492 44.1333 20.5717 44.3758 21.631L44.6207 22.7061C44.8509 23.7188 44.2766 24.712 43.2835 25.0169L42.2463 25.3353C41.2066 25.6536 40.4572 26.4018 40.1364 27.4403L39.8106 28.4934C39.5045 29.4853 38.5102 30.0584 37.4975 29.8257L36.4407 29.582C35.3814 29.3383 34.3589 29.6114 33.5605 30.351L32.7511 31.1005ZM41.7809 16.6262C41.7809 10.91 37.1313 6.26032 31.4151 6.26032C25.6989 6.26032 21.0492 10.91 21.0492 16.6262C21.0492 22.3424 25.6989 26.9921 31.4151 26.9921C37.1313 26.9921 41.7809 22.3424 41.7809 16.6262ZM31.4151 25.7675C26.3748 25.7675 22.2738 21.6665 22.2738 16.6262C22.2738 11.586 26.3748 7.48488 31.4151 7.48488C36.4554 7.48488 40.5564 11.586 40.5564 16.6262C40.5564 21.6665 36.4554 25.7675 31.4151 25.7675ZM38.5604 14.2396C38.4379 13.8636 38.0914 13.6114 37.6958 13.6114H37.6946L33.5532 13.6199L32.2796 9.67683C32.1584 9.30089 31.8106 9.04741 31.4151 9.04741C31.0196 9.04741 30.6718 9.30089 30.5505 9.67683L29.2782 13.6187L25.1356 13.6101H25.1343C24.74 13.6101 24.3923 13.8624 24.2698 14.2383C24.1473 14.6155 24.2808 15.0233 24.6017 15.2559L27.9569 17.6842L26.6699 21.6212C26.5475 21.9971 26.6797 22.4061 27.0006 22.6388C27.161 22.7551 27.3483 22.8127 27.5357 22.8127C27.723 22.8127 27.9104 22.7539 28.0696 22.6376L31.4151 20.197L34.7618 22.6376C35.0814 22.8702 35.5112 22.8702 35.8308 22.6376C36.1517 22.4049 36.2839 21.9959 36.1615 21.62L34.8744 17.683L38.2297 15.2547C38.5493 15.0245 38.6828 14.6155 38.5604 14.2396ZM33.9695 16.8271C33.6487 17.0597 33.5152 17.4687 33.6389 17.8459L34.6944 21.0726L31.9514 19.0717C31.791 18.9553 31.6037 18.8966 31.4163 18.8966C31.229 18.8966 31.0404 18.9553 30.88 19.0717L28.1369 21.0726L29.1925 17.8459C29.3162 17.4687 29.1827 17.0597 28.8619 16.8271L26.1115 14.8371L29.506 14.8433H29.5072C29.9028 14.8433 30.2505 14.591 30.3718 14.2138L31.4151 10.9835L32.4584 14.2138C32.5796 14.591 32.9274 14.8433 33.3242 14.8433H33.3254L36.7199 14.8371L33.9695 16.8271ZM27.881 54.1319V50.0725C27.881 44.7053 24.1755 43.2664 21.3358 42.6664L15.6244 39.3687C14.4464 38.6878 12.9635 38.9952 12.1406 40.0299L7.86077 32.6177C5.86352 29.1595 3.43033 29.7755 2.4764 30.2016C2.01229 30.4086 1.65717 30.8029 1.50043 31.2829C1.34491 31.763 1.40124 32.2907 1.65472 32.7316L8.4706 44.5375C9.55188 46.4099 10.927 47.7863 12.8006 48.8675L15.1358 50.2158C16.2784 50.8746 16.9323 52.0098 16.9323 53.3286V54.1344C16.0494 54.2678 15.371 55.0295 15.371 55.9479V58.5734C15.371 59.5861 16.1951 60.4102 17.2078 60.4102H27.6055C28.6182 60.4102 29.4423 59.5861 29.4423 58.5734V55.9479C29.4423 55.0258 28.7627 54.2654 27.881 54.1319ZM15.7481 49.1529L13.4129 47.8046C11.734 46.8348 10.5009 45.6016 9.53106 43.9228L2.71519 32.1168C2.63314 31.9748 2.61477 31.8119 2.66498 31.6589C2.71519 31.5058 2.82417 31.3846 2.97479 31.3172C3.96179 30.8764 5.42758 30.8507 6.80031 33.2275L11.5614 41.4749C11.4707 42.495 11.9642 43.5248 12.9084 44.0697L17.2739 46.5899C17.5666 46.7589 17.9413 46.6584 18.1103 46.3658C18.2793 46.0731 18.1789 45.6984 17.8862 45.5294L13.5207 43.0093C12.8092 42.5978 12.5643 41.6843 12.9745 40.9728C13.386 40.2614 14.2995 40.0165 15.0109 40.4267L20.808 43.7734C20.8643 43.8065 20.9268 43.8297 20.9904 43.8432C23.6281 44.3869 26.6552 45.587 26.6552 50.0713V54.1086H18.1568V53.3261C18.1568 51.5579 17.2788 50.037 15.7481 49.1529ZM28.2178 58.5697C28.2178 58.9077 27.9435 59.182 27.6055 59.182H17.2078C16.8698 59.182 16.5955 58.9077 16.5955 58.5697V55.9442C16.5955 55.6063 16.8698 55.332 17.2078 55.332H27.6055C27.9435 55.332 28.2178 55.6063 28.2178 55.9442V58.5697ZM61.3297 31.2817C61.1742 30.8017 60.8179 30.4074 60.3538 30.2004C59.3998 29.7743 56.9654 29.1583 54.9694 32.6165L50.6896 40.0287C49.8679 38.9927 48.385 38.6866 47.2057 39.3674L41.4944 42.6652C38.6547 43.2652 34.9491 44.7041 34.9491 50.0713V54.1307C34.0662 54.2642 33.3878 55.0258 33.3878 55.9442V58.5697C33.3878 59.5824 34.212 60.4065 35.2247 60.4065H45.6224C46.6351 60.4065 47.4592 59.5824 47.4592 58.5697V55.9442C47.4592 55.0246 46.7796 54.2642 45.8979 54.1307V53.3249C45.8979 52.0061 46.553 50.8721 47.6943 50.2121L50.0295 48.8639C51.9019 47.7826 53.2783 46.4074 54.3596 44.5338L61.1755 32.7279C61.4289 32.2907 61.4853 31.763 61.3297 31.2817ZM46.2346 55.9455V58.5709C46.2346 58.9089 45.9603 59.1832 45.6224 59.1832H35.2247C34.8867 59.1832 34.6124 58.9089 34.6124 58.5709V55.9455C34.6124 55.6075 34.8867 55.3332 35.2247 55.3332H45.6224C45.9603 55.3332 46.2346 55.6075 46.2346 55.9455ZM60.1138 32.1181L53.2979 43.924C52.328 45.6029 51.0949 46.836 49.416 47.8059L47.0808 49.1541C45.5501 50.0382 44.6721 51.5591 44.6721 53.3274V54.1099H36.1737V50.0725C36.1737 45.5882 39.2008 44.3893 41.8385 43.8444C41.9022 43.8309 41.9646 43.8077 42.021 43.7746L47.818 40.4279C48.5295 40.0165 49.443 40.2614 49.8544 40.9741C50.0528 41.3169 50.1042 41.7186 50.0014 42.1043C49.8973 42.4901 49.6524 42.8121 49.3095 43.0105L44.944 45.5306C44.6513 45.6996 44.5509 46.0743 44.7199 46.367C44.8889 46.6597 45.2636 46.7601 45.5562 46.5911L49.9218 44.071C50.5475 43.7097 50.9957 43.1232 51.1843 42.4215C51.2688 42.108 51.2957 41.7896 51.2688 41.4761L56.0299 33.2287C57.4026 30.8519 58.8672 30.8776 59.8554 31.3184C60.006 31.3858 60.115 31.507 60.1652 31.6601C60.2142 31.8132 60.197 31.976 60.1138 32.1181Z" fill="white"/>
</g>
</g>
</g>
<defs>
<clipPath id="clip0_3657_681">
<rect width="61" height="60" fill="white" transform="translate(0.609375 0.410156)"/>
</clipPath>
<clipPath id="clip1_3657_681">
<rect width="61" height="60" fill="white" transform="translate(0.609375 0.410156)"/>
</clipPath>
<clipPath id="clip2_3657_681">
<rect width="61" height="60" fill="white" transform="translate(0.609375 0.410156)"/>
</clipPath>
</defs>
</svg>
