<svg width="61" height="61" viewBox="0 0 61 61" fill="none" xmlns="http://www.w3.org/2000/svg">
<g clip-path="url(#clip0_3657_643)">
<g clip-path="url(#clip1_3657_643)">
<g clip-path="url(#clip2_3657_643)">
<path d="M43.3754 39.9401H31.5072C31.1259 39.9401 30.8164 39.6306 30.8164 39.2493V34.4233C30.8164 34.0419 31.1259 33.7324 31.5072 33.7324H43.3754C43.7567 33.7324 44.0662 34.0419 44.0662 34.4233V39.2493C44.0662 39.6306 43.7567 39.9401 43.3754 39.9401ZM32.198 38.5585H42.6846V35.1141H32.198V38.5585Z" fill="white"/>
<path d="M34.8978 35.1142C34.5165 35.1142 34.207 34.8047 34.207 34.4234V6.56972C34.207 6.18839 34.5165 5.87891 34.8978 5.87891C35.2792 5.87891 35.5887 6.18839 35.5887 6.56972V34.4234C35.5887 34.8047 35.2792 35.1142 34.8978 35.1142Z" fill="white"/>
<path d="M39.9838 35.1142C39.6025 35.1142 39.293 34.8047 39.293 34.4234V6.56972C39.293 6.18839 39.6025 5.87891 39.9838 5.87891C40.3651 5.87891 40.6746 6.18839 40.6746 6.56972V34.4234C40.6746 34.8047 40.3651 35.1142 39.9838 35.1142Z" fill="white"/>
<path d="M37.4402 8.44295C35.2255 8.44295 33.4238 6.64131 33.4238 4.42656C33.4238 2.2118 35.2255 0.410156 37.4402 0.410156C39.655 0.410156 41.4566 2.2118 41.4566 4.42656C41.4566 6.64131 39.655 8.44295 37.4402 8.44295ZM37.4402 1.79179C35.9867 1.79179 34.8054 2.97446 34.8054 4.42656C34.8054 5.88003 35.9881 7.06132 37.4402 7.06132C38.8923 7.06132 40.075 5.87865 40.075 4.42656C40.075 2.97446 38.8937 1.79179 37.4402 1.79179Z" fill="white"/>
<path d="M34.4251 6.51983H17.9271C17.5458 6.51983 17.2363 6.21035 17.2363 5.82902V3.02431C17.2363 2.64298 17.5458 2.3335 17.9271 2.3335H34.4251C34.8064 2.3335 35.1159 2.64298 35.1159 3.02431C35.1159 3.40564 34.8064 3.71513 34.4251 3.71513H18.6179V5.13682H34.4251C34.8064 5.13682 35.1159 5.44631 35.1159 5.82764C35.1159 6.20897 34.8064 6.51983 34.4251 6.51983Z" fill="white"/>
<path d="M56.9544 6.51983H40.4564C40.0751 6.51983 39.7656 6.21035 39.7656 5.82902C39.7656 5.44769 40.0751 5.1382 40.4564 5.1382H56.2636V3.71513H40.4564C40.0751 3.71513 39.7656 3.40564 39.7656 3.02431C39.7656 2.64298 40.0751 2.3335 40.4564 2.3335H56.9544C57.3358 2.3335 57.6453 2.64298 57.6453 3.02431V5.82764C57.6453 6.21035 57.3358 6.51983 56.9544 6.51983Z" fill="white"/>
<path d="M23.8077 30.7064C18.7537 30.7064 14.6406 27.0906 14.6406 22.6473C14.6406 22.266 14.9501 21.9565 15.3314 21.9565H32.2826C32.6639 21.9565 32.9734 22.266 32.9734 22.6473C32.9734 27.0906 28.8617 30.7064 23.8077 30.7064ZM16.0637 23.3368C16.4685 26.6955 19.7871 29.3234 23.8077 29.3234C27.8282 29.3234 31.1469 26.6955 31.5517 23.3368H16.0637Z" fill="white"/>
<path d="M29.6943 23.337C29.4083 23.337 29.1417 23.1588 29.0422 22.8742L23.8086 7.91939L18.5736 22.8742C18.4479 23.2348 18.0541 23.4241 17.6935 23.2983C17.3329 23.1726 17.1436 22.7788 17.2693 22.4182L23.1551 5.60102C23.2518 5.32331 23.5129 5.13818 23.8072 5.13818C24.1015 5.13818 24.3626 5.32331 24.4593 5.60102L30.3451 22.4182C30.4708 22.7788 30.2815 23.1726 29.9209 23.2983C29.8477 23.3246 29.7703 23.337 29.6943 23.337Z" fill="white"/>
<path d="M51.0731 30.7066C46.0191 30.7066 41.906 27.0908 41.906 22.6475C41.906 22.2662 42.2155 21.9567 42.5969 21.9567H59.5481C59.9294 21.9567 60.2389 22.2662 60.2389 22.6475C60.2403 27.0908 56.1285 30.7066 51.0731 30.7066ZM43.3305 23.337C43.7353 26.6957 47.054 29.3236 51.0745 29.3236C55.0951 29.3236 58.4137 26.6957 58.8186 23.337H43.3305Z" fill="white"/>
<path d="M56.96 23.337C56.674 23.337 56.4073 23.1588 56.3078 22.8742L51.0728 7.91939L45.8392 22.8742C45.7135 23.2348 45.3184 23.4241 44.9591 23.2983C44.5985 23.1726 44.4093 22.7788 44.535 22.4182L50.4207 5.60102C50.5174 5.32331 50.7786 5.13818 51.0728 5.13818C51.3671 5.13818 51.6283 5.32331 51.725 5.60102L57.6107 22.4182C57.7364 22.7788 57.5472 23.1726 57.1866 23.2983C57.1119 23.3246 57.0346 23.337 56.96 23.337Z" fill="white"/>
<path d="M30.0863 60.41C27.4474 60.41 25.1415 59.056 19.4768 55.7291C18.5469 55.1833 17.5231 54.5823 16.3902 53.9233C16.1857 53.8045 15.9785 53.6787 15.7699 53.5516C14.4849 52.7696 13.2719 52.0305 11.9566 52.5541C11.6029 52.695 11.2008 52.5223 11.0599 52.1672C10.919 51.8122 11.0917 51.4115 11.4467 51.2692C13.4031 50.4899 15.1136 51.5331 16.4897 52.3703C16.69 52.4919 16.8876 52.6135 17.0852 52.7282C18.2209 53.3886 19.246 53.9896 20.1773 54.5367C24.7435 57.2185 27.0357 58.5642 29.0017 58.9234C30.9167 59.273 32.7197 58.6885 36.3105 57.5252C38.5736 56.7916 41.3908 55.8783 45.3616 54.8144L56.6799 51.7818C57.6305 51.5275 58.4277 50.9127 58.9237 50.0534C59.4197 49.194 59.5537 48.1964 59.2981 47.2459C59.0439 46.2953 58.429 45.4981 57.5697 45.0021C56.7103 44.5061 55.7128 44.3735 54.7622 44.6277L39.3004 48.7712C39.2216 49.2879 39.0462 49.7908 38.7767 50.2565C37.5982 52.2985 34.9773 53.0004 32.9352 51.8218L23.7985 46.5468C23.4683 46.3561 23.355 45.9333 23.5457 45.6031C23.7363 45.2729 24.1591 45.1596 24.4893 45.3503L33.626 50.6253C35.0077 51.4225 36.7817 50.9486 37.5803 49.5656C37.8165 49.1567 37.9464 48.7049 37.9643 48.2434C37.9643 48.2213 37.9643 48.1978 37.9657 48.1757C37.9699 47.9077 37.9367 47.6369 37.8649 47.3702C37.6645 46.6214 37.1865 45.9969 36.5205 45.6114L27.3838 40.3364C26.0602 39.5723 24.8679 38.8179 23.7142 38.0898C18.2209 34.6164 14.5913 32.3215 7.47869 35.6775C7.13328 35.8405 6.72156 35.6927 6.55852 35.3473C6.39549 35.0019 6.54333 34.5902 6.88873 34.4271C14.688 30.7479 18.9973 33.4724 24.452 36.921C25.5932 37.6436 26.7745 38.3896 28.0733 39.1399L37.21 44.4149C38.1951 44.9842 38.9011 45.9057 39.1981 47.0124C39.2285 47.1229 39.2534 47.2348 39.2741 47.3467L54.403 43.293C55.71 42.9435 57.0792 43.1245 58.2591 43.8056C59.439 44.4868 60.2804 45.581 60.6313 46.888C61.3567 49.596 59.7443 52.3897 57.035 53.1164L45.7167 56.1491C41.7804 57.2033 38.9826 58.111 36.7347 58.8391C33.6854 59.8284 31.8133 60.41 30.0863 60.41Z" fill="white"/>
<path d="M8.72908 57.2116C8.04932 57.2116 7.37785 57.0334 6.77131 56.6825C5.86358 56.1575 5.21422 55.3147 4.9448 54.3061L0.133968 36.3559C-0.13545 35.3487 0.00409424 34.2932 0.529113 33.3841C1.05413 32.475 1.89693 31.8256 2.90552 31.5562L6.02385 30.7217C6.2007 30.6747 6.38998 30.6996 6.54749 30.7907C6.70638 30.8819 6.82243 31.0325 6.86941 31.2108L13.3506 55.3962C13.3976 55.573 13.3727 55.7623 13.2815 55.9198C13.1904 56.0773 13.0384 56.1948 12.8615 56.2417L9.7432 57.0776C9.40884 57.1674 9.06758 57.2116 8.72908 57.2116ZM5.71299 32.2345L3.26198 32.8908C2.61123 33.0649 2.06549 33.4863 1.7256 34.0749C1.38572 34.6635 1.29454 35.3474 1.46862 35.9981L6.27807 53.9482C6.45216 54.599 6.87355 55.1447 7.46213 55.486C8.0507 55.8259 8.73461 55.917 9.38535 55.743L11.8364 55.0867L5.71299 32.2345Z" fill="white"/>
</g>
</g>
</g>
<defs>
<clipPath id="clip0_3657_643">
<rect width="61" height="60" fill="white" transform="translate(0 0.410156)"/>
</clipPath>
<clipPath id="clip1_3657_643">
<rect width="61" height="60" fill="white" transform="translate(0 0.410156)"/>
</clipPath>
<clipPath id="clip2_3657_643">
<rect width="61" height="60" fill="white" transform="translate(0 0.410156)"/>
</clipPath>
</defs>
</svg>
