<svg width="62" height="61" viewBox="0 0 62 61" fill="none" xmlns="http://www.w3.org/2000/svg">
<g clip-path="url(#clip0_3657_672)">
<g clip-path="url(#clip1_3657_672)">
<g clip-path="url(#clip2_3657_672)">
<path d="M21.8861 14.4986C21.7138 15.0291 21.8834 15.5977 22.3182 15.9472L26.1895 19.0588L24.8865 23.8516C24.7402 24.3898 24.9372 24.9494 25.3887 25.2778C25.8404 25.6055 26.4332 25.6199 26.9 25.3145L31.0556 22.5942L35.2113 25.3146C35.4353 25.4612 35.6883 25.5341 35.9409 25.5341C36.2146 25.5341 36.4878 25.4484 36.7223 25.2778C37.174 24.9498 37.3711 24.3898 37.2245 23.8516L35.9215 19.0589L39.7926 15.9475C40.2277 15.598 40.3974 15.0293 40.2249 14.4986C40.0525 13.9677 39.5809 13.6074 39.0237 13.5804L34.0628 13.3385L32.2999 8.6953C32.1019 8.1737 31.6134 7.83655 31.0555 7.83655C30.4975 7.83655 30.009 8.17358 29.8112 8.69518L28.0481 13.3387L23.0875 13.5804C22.5301 13.6074 22.0585 13.9677 21.8861 14.4986ZM28.495 15.194C29.0238 15.1682 29.4868 14.8317 29.6744 14.337L31.0553 10.7001L32.4363 14.3373C32.6242 14.832 33.0874 15.1682 33.6156 15.194L37.5012 15.3835L34.4689 17.8206C34.0563 18.1524 33.8795 18.6967 34.0184 19.2072L35.039 22.9611L31.784 20.8303C31.5626 20.6855 31.3089 20.6131 31.0552 20.6131C30.8015 20.6131 30.5476 20.6856 30.3261 20.8304L27.0713 22.9611L28.0919 19.2074C28.2309 18.6966 28.0541 18.1521 27.6413 17.8206L24.6091 15.3836L28.495 15.194ZM30.1178 4.78804V1.34765C30.1178 0.829921 30.5376 0.410156 31.0553 0.410156C31.5731 0.410156 31.9928 0.829921 31.9928 1.34765V4.78804C31.9928 5.30578 31.5731 5.72554 31.0553 5.72554C30.5376 5.72554 30.1178 5.30578 30.1178 4.78804ZM35.8271 10.3425C35.4807 9.95776 35.5117 9.36491 35.8965 9.0185L39.7302 5.5664C40.1151 5.21988 40.7078 5.25093 41.0543 5.63578C41.4007 6.0205 41.3697 6.61335 40.985 6.95976L37.1511 10.4119C36.9719 10.5733 36.7476 10.6527 36.524 10.6527C36.2677 10.6527 36.0122 10.5482 35.8271 10.3425ZM21.0563 5.63578C21.4027 5.25093 21.9955 5.21988 22.3804 5.5664L26.2143 9.0185C26.5991 9.36491 26.6301 9.95776 26.2837 10.3425C26.0985 10.5481 25.8431 10.6527 25.5867 10.6527C25.3632 10.6527 25.1389 10.5733 24.9596 10.4119L21.1257 6.95976C20.7409 6.61335 20.7099 6.0205 21.0563 5.63578ZM43.0827 15.9472L46.954 19.0588L45.651 23.8516C45.5048 24.3898 45.7018 24.9494 46.1533 25.2778C46.6046 25.6055 47.1975 25.6198 47.6645 25.3145L51.8201 22.5942L55.9758 25.3146C56.1999 25.4612 56.4529 25.5341 56.7054 25.5341C56.9792 25.5341 57.2523 25.4484 57.4868 25.2778C57.9383 24.95 58.1354 24.3902 57.9891 23.8516L56.6861 19.0589L60.5571 15.9475C60.9921 15.5981 61.1618 15.0294 60.9893 14.4986C60.8169 13.9677 60.3454 13.6074 59.7882 13.5804L54.8274 13.3385L53.0645 8.6953C52.8666 8.1737 52.378 7.83655 51.8201 7.83655C51.2621 7.83655 50.7735 8.17358 50.5756 8.69518L48.8127 13.3385L43.8522 13.5803C43.2946 13.6072 42.823 13.9677 42.6507 14.4986C42.4782 15.0293 42.6479 15.598 43.0827 15.9472ZM49.2594 15.194C49.7883 15.1682 50.2514 14.8317 50.4392 14.3369L51.82 10.6999L53.2007 14.3367C53.3885 14.8317 53.8517 15.1682 54.3803 15.1938L58.2659 15.3833L55.2339 17.8202C54.821 18.1519 54.6441 18.6963 54.7831 19.207L55.8036 22.961L52.5487 20.8302C52.3272 20.6854 52.0735 20.6129 51.8197 20.6129C51.5659 20.6129 51.3121 20.6855 51.0907 20.8303L47.836 22.961L48.8565 19.2073C48.9954 18.6967 48.8187 18.1524 48.406 17.8205L45.3737 15.3833L49.2594 15.194ZM1.55347 15.9472L5.42475 19.0588L4.12174 23.8516C3.97549 24.3898 4.17249 24.9494 4.62401 25.2778C5.07565 25.6055 5.6685 25.6199 6.13526 25.3145L10.2908 22.5942L14.4465 25.3146C14.6706 25.4612 14.9236 25.5341 15.1761 25.5341C15.4499 25.5341 15.723 25.4484 15.9575 25.2778C16.409 24.95 16.6061 24.3902 16.4598 23.8516L15.1568 19.0589L19.0278 15.9475C19.4626 15.5984 19.6324 15.0298 19.46 14.498C19.2873 13.9675 18.8157 13.6072 18.259 13.5803L13.2981 13.3384L11.5352 8.6953C11.3373 8.1737 10.8487 7.83655 10.2908 7.83655C9.73279 7.83655 9.24424 8.17358 9.04631 8.69518L7.28346 13.3385L2.32292 13.5803C1.76546 13.6072 1.2939 13.9677 1.12164 14.498C0.948785 15.029 1.11836 15.5979 1.55347 15.9472ZM7.73017 15.194C8.25904 15.1682 8.72217 14.8317 8.9099 14.3369L10.2907 10.6999L11.6714 14.3367C11.8592 14.8317 12.3224 15.1682 12.851 15.1938L16.7366 15.3833L13.7046 17.8202C13.2917 18.1519 13.1148 18.6963 13.2538 19.207L14.2744 22.961L11.0194 20.8302C10.7979 20.6854 10.5442 20.6129 10.2905 20.6129C10.0367 20.6129 9.78283 20.6855 9.56146 20.8303L6.3067 22.961L7.32728 19.2073C7.46615 18.6967 7.28943 18.1524 6.8767 17.8205L3.84448 15.3833L7.73017 15.194ZM60.9077 50.2069C60.2481 48.0767 58.897 46.164 57.1033 44.8208C56.2445 44.1778 55.3093 43.6769 54.3229 43.3223C55.6906 42.2489 56.5718 40.5825 56.5718 38.713C56.5718 35.4826 53.9436 32.8546 50.7134 32.8546C47.483 32.8546 44.8548 35.4826 44.8548 38.713C44.8548 40.5802 45.734 42.245 47.099 43.3186C45.2696 43.9715 43.6489 45.1188 42.4077 46.6647C41.8277 45.8532 41.1585 45.0995 40.4063 44.4192C38.8906 43.0484 37.1118 42.0418 35.1961 41.4468C37.2276 40.1001 38.5706 37.7942 38.5706 35.1797C38.5706 31.0359 35.1992 27.6647 31.0555 27.6647C26.9117 27.6647 23.5403 31.0359 23.5403 35.1797C23.5403 37.7942 24.8832 40.1001 26.9146 41.4468C24.9989 42.0417 23.2201 43.0484 21.7044 44.4192C20.9522 45.0995 20.283 45.8532 19.7031 46.6646C18.462 45.1186 16.8413 43.9713 15.0118 43.3182C16.3767 42.2446 17.2559 40.5799 17.2559 38.7126C17.2559 35.4822 14.6278 32.8542 11.3975 32.8542C8.16717 32.8542 5.53901 35.4822 5.53901 38.7126C5.53901 40.582 6.42026 42.2485 7.78783 43.322C6.80135 43.6766 5.86619 44.1774 5.00733 44.8204C3.21354 46.1635 1.86249 48.0764 1.20285 50.2065C0.898043 51.1904 1.06691 52.1889 1.67827 53.0184C2.28952 53.8476 3.1935 54.3042 4.22358 54.3042H17.1836V55.9961C17.1836 58.4301 19.1638 60.4102 21.5977 60.4102H40.5129C42.9468 60.4102 44.927 58.4301 44.9271 55.9961V54.3046H57.8871C58.9173 54.3046 59.8213 53.848 60.4324 53.0189C61.0437 52.1894 61.2125 51.1907 60.9077 50.2069ZM50.7134 34.7296C52.9098 34.7296 54.6968 36.5165 54.6968 38.713C54.6968 40.9095 52.9098 42.6965 50.7134 42.6965C48.5168 42.6965 46.7298 40.9095 46.7298 38.713C46.7298 36.5165 48.5168 34.7296 50.7134 34.7296ZM25.4153 35.1797C25.4153 32.0697 27.9455 29.5397 31.0555 29.5397C34.1654 29.5397 36.6956 32.0697 36.6956 35.1797C36.6956 38.2886 34.167 40.818 31.0585 40.8197H31.0553H31.0523C27.9438 40.8179 25.4153 38.2885 25.4153 35.1797ZM11.3975 34.7291C13.594 34.7291 15.381 36.5161 15.381 38.7125C15.381 40.9091 13.594 42.6961 11.3975 42.6961C9.20099 42.6961 7.414 40.9091 7.414 38.7125C7.414 36.5161 9.20099 34.7291 11.3975 34.7291ZM17.3054 52.429H4.2237C3.79221 52.429 3.4437 52.253 3.18764 51.9057C2.93147 51.5583 2.86643 51.1733 2.99405 50.7611C4.14061 47.0586 7.51783 44.5711 11.3975 44.5711C14.3322 44.5711 17.0056 45.989 18.6499 48.3894C17.9999 49.6522 17.5446 51.0133 17.3054 52.429ZM43.0521 55.996C43.052 57.396 41.913 58.5351 40.5129 58.5351H21.5977C20.1977 58.5351 19.0586 57.396 19.0586 55.996V53.4175C19.7374 47.3017 24.8847 42.6962 31.0523 42.6947L31.0555 42.6948L31.0585 42.6947C37.2259 42.6963 42.3732 47.3017 43.0521 53.4175V55.996ZM58.9232 51.9063C58.6671 52.2535 58.3187 52.4295 57.8871 52.4295H44.8055C44.5662 51.0137 44.1109 49.6525 43.461 48.3896C45.1054 45.9894 47.7787 44.5715 50.7133 44.5715C54.593 44.5715 57.9702 47.0592 59.1168 50.7617C59.2444 51.1736 59.1792 51.5587 58.9232 51.9063Z" fill="white"/>
</g>
</g>
</g>
<defs>
<clipPath id="clip0_3657_672">
<rect width="61" height="60" fill="white" transform="translate(0.25 0.410156)"/>
</clipPath>
<clipPath id="clip1_3657_672">
<rect width="61" height="60" fill="white" transform="translate(0.25 0.410156)"/>
</clipPath>
<clipPath id="clip2_3657_672">
<rect width="61" height="60" fill="white" transform="translate(0.25 0.410156)"/>
</clipPath>
</defs>
</svg>
