<svg width="24" height="25" viewBox="0 0 24 25" fill="none" xmlns="http://www.w3.org/2000/svg">
<path fill-rule="evenodd" clip-rule="evenodd" d="M4.92691 11.8668C7.22196 14.6718 9.79108 17.2409 12.5961 19.536L13.3159 20.1248C14.7075 21.2635 16.7356 21.1623 18.0071 19.8909L20.0436 17.8544L16.1545 13.9653L13.5028 16.6169L7.83595 10.9501L10.4964 8.30724L6.60853 4.41933L4.57203 6.45584C3.30056 7.72731 3.19941 9.75537 4.33805 11.147L4.92691 11.8668ZM11.9629 20.3099C9.10637 17.9728 6.49011 15.3565 4.15296 12.5L3.56409 11.7803C2.10012 9.99098 2.23017 7.38348 3.86492 5.74873L6.60853 3.00512L11.913 8.3096L9.25252 10.9524L13.5028 15.2027L16.1545 12.5511L21.4578 17.8544L18.7142 20.598C17.0794 22.2327 14.4719 22.3628 12.6826 20.8988L11.9629 20.3099Z" fill="white"/>
</svg>
