<svg width="15" height="15" viewBox="0 0 15 15" fill="none" xmlns="http://www.w3.org/2000/svg">
<g clip-path="url(#clip0_3657_982)">
<path d="M7.82939 1.25488C6.51689 1.27311 5.34111 1.52832 4.30204 2.02051C3.24475 2.53092 2.40621 3.21452 1.78642 4.07129C1.16663 4.92806 0.847618 5.88509 0.829389 6.94238C0.865847 8.27311 1.34892 9.42155 2.27861 10.3877C2.04163 10.9528 1.77731 11.4176 1.48564 11.7822C1.19397 12.165 1.03902 12.3656 1.0208 12.3838C0.820274 12.6025 0.774701 12.8395 0.884076 13.0947C1.01168 13.3499 1.2122 13.4867 1.48564 13.5049C2.32418 13.4867 3.06246 13.3499 3.70048 13.0947C4.3385 12.8213 4.86715 12.5387 5.28642 12.2471C6.07027 12.5023 6.91793 12.6299 7.82939 12.6299C9.12366 12.6117 10.2994 12.3564 11.3567 11.8643C12.3958 11.3538 13.2252 10.6702 13.845 9.81348C14.4648 8.95671 14.7838 7.99967 14.802 6.94238C14.7838 5.88509 14.4648 4.92806 13.845 4.07129C13.2252 3.21452 12.3958 2.53092 11.3567 2.02051C10.2994 1.52832 9.12366 1.27311 7.82939 1.25488ZM7.82939 11.3174C7.10022 11.3174 6.38928 11.208 5.69658 10.9893L5.06767 10.7979L4.52079 11.1807C4.13798 11.4723 3.61845 11.7367 2.9622 11.9736C3.16272 11.6273 3.34501 11.2536 3.50908 10.8525L3.78251 10.0869L3.23564 9.48535C2.98043 9.23014 2.73434 8.88379 2.49736 8.44629C2.27861 8.02702 2.16012 7.52572 2.14189 6.94238C2.17835 5.7028 2.73434 4.67285 3.80986 3.85254C4.88538 3.03223 6.22522 2.60384 7.82939 2.56738C9.43356 2.60384 10.7734 3.03223 11.8489 3.85254C12.9244 4.67285 13.4804 5.7028 13.5169 6.94238C13.4804 8.18197 12.9244 9.21191 11.8489 10.0322C10.7734 10.8525 9.43356 11.2809 7.82939 11.3174Z" fill="#F41714"/>
</g>
<defs>
<clipPath id="clip0_3657_982">
<rect width="14" height="14" fill="white" transform="matrix(1 0 0 -1 0.830078 14.3799)"/>
</clipPath>
</defs>
</svg>
