<svg width="13" height="15" viewBox="0 0 13 15" fill="none" xmlns="http://www.w3.org/2000/svg">
<g clip-path="url(#clip0_3657_977)">
<path d="M4.43555 2.12988H8.37305V1.03613C8.4095 0.635091 8.62825 0.416341 9.0293 0.379883C9.43034 0.416341 9.64909 0.635091 9.68555 1.03613V2.12988H10.7793C11.2715 2.14811 11.6816 2.32129 12.0098 2.64941C12.3379 2.97754 12.5111 3.3877 12.5293 3.87988V12.6299C12.5111 13.1221 12.3379 13.5322 12.0098 13.8604C11.6816 14.1885 11.2715 14.3617 10.7793 14.3799H2.0293C1.53711 14.3617 1.12695 14.1885 0.798828 13.8604C0.470703 13.5322 0.297526 13.1221 0.279297 12.6299V3.87988C0.297526 3.3877 0.470703 2.97754 0.798828 2.64941C1.12695 2.32129 1.53711 2.14811 2.0293 2.12988H3.12305V1.03613C3.15951 0.635091 3.37826 0.416341 3.7793 0.379883C4.18034 0.416341 4.39909 0.635091 4.43555 1.03613V2.12988ZM1.5918 12.6299C1.61003 12.9033 1.75586 13.0492 2.0293 13.0674H10.7793C11.0527 13.0492 11.1986 12.9033 11.2168 12.6299V5.62988H1.5918V12.6299Z" fill="#F41714"/>
</g>
<defs>
<clipPath id="clip0_3657_977">
<rect width="12.25" height="14" fill="white" transform="matrix(1 0 0 -1 0.279297 14.3799)"/>
</clipPath>
</defs>
</svg>
