<svg width="13" height="15" viewBox="0 0 13 15" fill="none" xmlns="http://www.w3.org/2000/svg">
<g clip-path="url(#clip0_3657_972)">
<path d="M7.4375 8.69238H4.8125C3.44531 8.72884 2.3151 9.2028 1.42188 10.1143C0.510417 11.0075 0.0364583 12.1377 0 13.5049C0 13.7601 0.0820312 13.9697 0.246094 14.1338C0.410156 14.2979 0.619792 14.3799 0.875 14.3799H11.375C11.6302 14.3799 11.8398 14.2979 12.0039 14.1338C12.168 13.9697 12.25 13.7601 12.25 13.5049C12.2135 12.1377 11.7396 11.0075 10.8281 10.1143C9.9349 9.2028 8.80469 8.72884 7.4375 8.69238ZM1.33984 13.0674C1.46745 12.1924 1.85026 11.4632 2.48828 10.8799C3.1263 10.3148 3.90104 10.0231 4.8125 10.0049H7.4375C8.34896 10.0231 9.1237 10.3148 9.76172 10.8799C10.3997 11.4632 10.7826 12.1924 10.9102 13.0674H1.33984ZM6.125 7.37988C7.10938 7.36165 7.9388 7.02441 8.61328 6.36816C9.26953 5.69368 9.60677 4.86426 9.625 3.87988C9.60677 2.89551 9.26953 2.06608 8.61328 1.3916C7.9388 0.735352 7.10938 0.398112 6.125 0.379883C5.14062 0.398112 4.3112 0.735352 3.63672 1.3916C2.98047 2.06608 2.64323 2.89551 2.625 3.87988C2.64323 4.86426 2.98047 5.69368 3.63672 6.36816C4.3112 7.02441 5.14062 7.36165 6.125 7.37988ZM6.125 1.69238C6.74479 1.71061 7.26432 1.92025 7.68359 2.32129C8.08464 2.74056 8.29427 3.26009 8.3125 3.87988C8.29427 4.49967 8.08464 5.01921 7.68359 5.43848C7.26432 5.83952 6.74479 6.04915 6.125 6.06738C5.50521 6.04915 4.98568 5.83952 4.56641 5.43848C4.16536 5.01921 3.95573 4.49967 3.9375 3.87988C3.95573 3.26009 4.16536 2.74056 4.56641 2.32129C4.98568 1.92025 5.50521 1.71061 6.125 1.69238Z" fill="#F41714"/>
</g>
<defs>
<clipPath id="clip0_3657_972">
<rect width="12.25" height="14" fill="white" transform="matrix(1 0 0 -1 0 14.3799)"/>
</clipPath>
</defs>
</svg>
