<svg width="101" height="100" viewBox="0 0 101 100" fill="none" xmlns="http://www.w3.org/2000/svg">
<mask id="path-1-inside-1_3657_769" fill="white">
<path d="M0.5 50C0.5 22.3858 22.8858 0 50.5 0C78.1142 0 100.5 22.3858 100.5 50C100.5 77.6142 78.1142 100 50.5 100C22.8858 100 0.5 77.6142 0.5 50Z"/>
</mask>
<path d="M50.5 97C24.5426 97 3.5 75.9574 3.5 50H-2.5C-2.5 79.2711 21.2289 103 50.5 103V97ZM97.5 50C97.5 75.9574 76.4574 97 50.5 97V103C79.7711 103 103.5 79.2711 103.5 50H97.5ZM50.5 3C76.4574 3 97.5 24.0426 97.5 50H103.5C103.5 20.7289 79.7711 -3 50.5 -3V3ZM50.5 -3C21.2289 -3 -2.5 20.7289 -2.5 50H3.5C3.5 24.0426 24.5426 3 50.5 3V-3Z" fill="white" mask="url(#path-1-inside-1_3657_769)"/>
<mask id="path-3-inside-2_3657_769" fill="white">
<path d="M0.5 50C0.5 22.3858 22.8858 0 50.5 0C78.1142 0 100.5 22.3858 100.5 50C100.5 77.6142 78.1142 100 50.5 100C22.8858 100 0.5 77.6142 0.5 50Z"/>
</mask>
<path d="M50.5 97C24.5426 97 3.5 75.9574 3.5 50H-2.5C-2.5 79.2711 21.2289 103 50.5 103V97ZM97.5 50C97.5 75.9574 76.4574 97 50.5 97V103C79.7711 103 103.5 79.2711 103.5 50H97.5ZM50.5 3C76.4574 3 97.5 24.0426 97.5 50H103.5C103.5 20.7289 79.7711 -3 50.5 -3V3ZM50.5 -3C21.2289 -3 -2.5 20.7289 -2.5 50H3.5C3.5 24.0426 24.5426 3 50.5 3V-3Z" fill="white" mask="url(#path-3-inside-2_3657_769)"/>
<mask id="path-5-inside-3_3657_769" fill="white">
<path d="M0.5 50C0.5 22.3858 22.8858 0 50.5 0C78.1142 0 100.5 22.3858 100.5 50C100.5 77.6142 78.1142 100 50.5 100C22.8858 100 0.5 77.6142 0.5 50Z"/>
</mask>
<path d="M50.5 97C24.5426 97 3.5 75.9574 3.5 50H-2.5C-2.5 79.2711 21.2289 103 50.5 103V97ZM97.5 50C97.5 75.9574 76.4574 97 50.5 97V103C79.7711 103 103.5 79.2711 103.5 50H97.5ZM50.5 3C76.4574 3 97.5 24.0426 97.5 50H103.5C103.5 20.7289 79.7711 -3 50.5 -3V3ZM50.5 -3C21.2289 -3 -2.5 20.7289 -2.5 50H3.5C3.5 24.0426 24.5426 3 50.5 3V-3Z" fill="white" mask="url(#path-5-inside-3_3657_769)"/>
<g clip-path="url(#clip0_3657_769)">
<path d="M44.4975 69.2959C43.4478 69.2459 42.598 68.896 41.9482 68.2462C41.2483 67.5464 40.8984 66.6966 40.8984 65.6968V39.3037C40.8984 38.304 41.2483 37.4542 41.9482 36.7544C42.598 36.1045 43.4478 35.7546 44.4975 35.7047C45.1473 35.7047 45.7722 35.8796 46.372 36.2295L67.9664 49.4261C69.0661 50.1759 69.6409 51.2006 69.6909 52.5003C69.6409 53.7999 69.0661 54.8247 67.9664 55.5745L46.372 68.771C45.7722 69.1209 45.1473 69.2959 44.4975 69.2959Z" fill="white"/>
</g>
<defs>
<clipPath id="clip0_3657_769">
<rect width="38.39" height="39" fill="white" transform="matrix(1 0 0 -1 31.3008 72)"/>
</clipPath>
</defs>
</svg>
