<svg width="25" height="24" viewBox="0 0 25 24" fill="none" xmlns="http://www.w3.org/2000/svg">
<g opacity="0.8">
<path d="M12.5 9C13.3284 9 14 8.32843 14 7.5C14 6.67157 13.3284 6 12.5 6C11.6716 6 11 6.67157 11 7.5C11 8.32843 11.6716 9 12.5 9Z" fill="#5E594C"/>
<path d="M17.75 7.5C17.75 12.75 12.5 15.75 12.5 15.75C12.5 15.75 7.25 12.75 7.25 7.5C7.25 6.10761 7.80312 4.77226 8.78769 3.78769C9.77226 2.80312 11.1076 2.25 12.5 2.25C13.8924 2.25 15.2277 2.80312 16.2123 3.78769C17.1969 4.77226 17.75 6.10761 17.75 7.5Z" stroke="#5E594C" stroke-width="1.2" stroke-linecap="round" stroke-linejoin="round"/>
<path d="M19.25 14.5449C21.0987 15.2274 22.25 16.1874 22.25 17.2505C22.25 19.3215 17.885 21.0005 12.5 21.0005C7.115 21.0005 2.75 19.3215 2.75 17.2505C2.75 16.1874 3.90125 15.2274 5.75 14.5449" stroke="#5E594C" stroke-width="1.2" stroke-linecap="round" stroke-linejoin="round"/>
</g>
</svg>
