<svg width="47" height="36" viewBox="0 0 47 36" fill="none" xmlns="http://www.w3.org/2000/svg">
<g clip-path="url(#clip0_3657_873)">
<g clip-path="url(#clip1_3657_873)">
<g clip-path="url(#clip2_3657_873)">
<path d="M35.06 34.8209C36.98 34.8209 38.66 34.4608 40.1 33.7408C41.54 32.9408 42.7 31.9009 43.58 30.6209C44.38 29.3409 45.02 27.8209 45.5 26.0609C45.98 24.3009 46.22 22.4609 46.22 20.5409C46.22 16.6209 45.22 12.9409 43.22 9.50082C41.14 6.06082 37.94 3.34082 33.62 1.34082L32.54 3.50082C34.78 4.54082 36.78 6.06082 38.54 8.06083C40.22 9.98083 41.22 12.0209 41.54 14.1809C42.02 15.8609 42.06 17.5009 41.66 19.1009C39.9 17.1809 37.54 16.2208 34.58 16.2208C31.86 16.2208 29.62 17.0609 27.86 18.7409C26.1 20.3409 25.22 22.5809 25.22 25.4609C25.22 28.2609 26.14 30.5409 27.98 32.3009C29.82 33.9809 32.18 34.8209 35.06 34.8209ZM10.34 34.8209C12.26 34.8209 13.94 34.4608 15.38 33.7408C16.82 32.9408 17.98 31.9009 18.86 30.6209C19.66 29.3409 20.3 27.8209 20.78 26.0609C21.26 24.3009 21.5 22.4609 21.5 20.5409C21.5 16.6209 20.5 12.9409 18.5 9.50082C16.42 6.06082 13.22 3.34082 8.9 1.34082L7.82 3.50082C10.06 4.54082 12.06 6.06082 13.82 8.06083C15.5 9.98083 16.5 12.0209 16.82 14.1809C17.3 15.8609 17.34 17.5009 16.94 19.1009C15.18 17.1809 12.82 16.2208 9.86 16.2208C7.14 16.2208 4.9 17.0609 3.14 18.7409C1.38 20.3409 0.5 22.5809 0.5 25.4609C0.5 28.2609 1.42 30.5409 3.26 32.3009C5.1 33.9809 7.46 34.8209 10.34 34.8209Z" fill="#F41714"/>
</g>
</g>
</g>
<defs>
<clipPath id="clip0_3657_873">
<rect width="46" height="35" fill="white" transform="translate(0.5 0.580078)"/>
</clipPath>
<clipPath id="clip1_3657_873">
<rect width="46" height="35" fill="white" transform="translate(0.5 0.580078)"/>
</clipPath>
<clipPath id="clip2_3657_873">
<rect width="46" height="35" fill="white" transform="translate(0.5 0.580078)"/>
</clipPath>
</defs>
</svg>
